<svg width="25" height="25" viewBox="0 0 25 25" fill="none" xmlns="http://www.w3.org/2000/svg">
<path d="M0.827123 7.0558C0.885585 5.7783 1.08561 4.95439 1.35613 4.25502L1.35976 4.24536C1.62783 3.53369 2.04776 2.88898 2.59034 2.35611L2.59795 2.34864L2.60543 2.34102C3.13874 1.79775 3.78367 1.37823 4.49472 1.11088L4.50699 1.10618C5.20476 0.834829 6.02706 0.635544 7.30562 0.577091M0.827123 7.0558C0.765663 8.42074 0.75 8.84385 0.75 12.3828C0.75 15.9227 0.764802 16.3448 0.827091 17.71M0.827123 7.0558L0.827122 7.4001M1.36088 20.5209C1.62823 21.232 2.04775 21.8769 2.59102 22.4102L2.59862 22.4177L2.60609 22.4253C3.13899 22.9679 3.78371 23.3878 4.49539 23.6559L4.50602 23.6599C5.20442 23.9308 6.02713 24.1301 7.30562 24.1886M1.36088 20.5209L1.35618 20.5087C1.08483 19.8109 0.885544 18.9886 0.827091 17.71M1.36088 20.5209L1.34485 20.4365M0.827091 17.71L0.848025 17.8203M0.827091 17.71L0.827092 17.3649M1.34485 20.4365L0.848025 17.8203M1.34485 20.4365C1.13384 19.8791 0.916563 19.1013 0.848025 17.8203M1.34485 20.4365C1.35225 20.4561 1.35964 20.4754 1.36702 20.4944C1.63462 21.2158 2.05861 21.869 2.60852 22.4071C3.14639 22.9569 3.79934 23.3808 4.52049 23.6483C5.09922 23.8738 5.91469 24.1094 7.30543 24.1731C8.70891 24.237 9.14252 24.25 12.6328 24.25C16.1231 24.25 16.5571 24.237 17.9606 24.1731C19.3531 24.1093 20.1676 23.8724 20.7443 23.6487C21.4658 23.3812 22.1191 22.9572 22.6572 22.407C23.2069 21.8692 23.6308 21.2163 23.8984 20.4952C24.1238 19.9164 24.3594 19.101 24.4231 17.7102C24.487 16.3067 24.5 15.8723 24.5 12.3828C24.5 8.8934 24.487 8.45855 24.4231 7.05506C24.3589 5.65533 24.1199 4.83961 23.8952 4.2624C23.6014 3.50403 23.2289 2.93047 22.6562 2.35784C22.0848 1.78749 21.5127 1.41474 20.7538 1.12068C20.1746 0.894209 19.3583 0.656633 17.9606 0.592581C17.8391 0.587049 17.7248 0.581899 17.6152 0.577105M0.848025 17.8203C0.846091 17.7841 0.844275 17.7476 0.842581 17.7106C0.837044 17.589 0.83189 17.4746 0.827092 17.3649M7.30562 0.577091C8.67088 0.514802 9.09385 0.5 12.6328 0.5C16.1718 0.5 16.5946 0.515647 17.9595 0.577105M7.30562 0.577091L7.65081 0.577092M17.9595 0.577105L17.6152 0.577105M17.9595 0.577105C19.2372 0.635545 20.0612 0.835545 20.7607 1.10608L20.7703 1.10976C21.482 1.37783 22.1267 1.79776 22.6595 2.34034L22.6669 2.34787L22.6745 2.35527C23.2171 2.88819 23.637 3.53307 23.9049 4.24494L23.9095 4.25699C24.1808 4.95476 24.3801 5.77707 24.4386 7.05562M7.65081 0.577092L17.6152 0.577105M7.65081 0.577092C8.80688 0.526542 9.44586 0.515661 12.6328 0.515661C15.8201 0.515661 16.4589 0.526544 17.6152 0.577105M7.65081 0.577092C7.54109 0.581889 7.42671 0.587044 7.30506 0.592581C5.91259 0.656395 5.09808 0.893298 4.52139 1.11697C3.79713 1.38546 3.14164 1.8117 2.60244 2.36483C2.03516 2.93445 1.66384 3.50527 1.37072 4.26174C1.14424 4.84101 0.90662 5.65767 0.842564 7.05543C0.837045 7.17669 0.831906 7.29071 0.827122 7.4001M24.4386 17.71C24.3801 18.9885 24.1808 19.8113 23.91 20.5097L23.9059 20.5203C23.6378 21.232 23.2179 21.8767 22.6753 22.4095L22.6677 22.417L22.6602 22.4246C22.1269 22.9679 21.482 23.3874 20.7709 23.6548L20.7587 23.6595C20.0609 23.9308 19.2386 24.1301 17.96 24.1886M0.827092 17.3649C0.776542 16.2088 0.765661 15.5698 0.765661 12.3828C0.765661 9.19488 0.776535 8.5568 0.827122 7.4001M0.827092 17.3649L0.827122 7.4001M10.5194 17.4851C11.1894 17.7627 11.9076 17.9055 12.6328 17.9055C14.0975 17.9055 15.5023 17.3237 16.538 16.288C17.5737 15.2523 18.1555 13.8475 18.1555 12.3828C18.1555 10.9181 17.5737 9.5134 16.538 8.47769C15.5023 7.44198 14.0975 6.86013 12.6328 6.86013C11.9076 6.86013 11.1894 7.00298 10.5194 7.28052C9.84935 7.55806 9.24053 7.96486 8.7277 8.47769C8.21487 8.99052 7.80807 9.59934 7.53053 10.2694C7.25299 10.9394 7.11014 11.6576 7.11014 12.3828C7.11014 13.1081 7.25299 13.8262 7.53053 14.4963C7.80807 15.1663 8.21487 15.7751 8.7277 16.288C9.24053 16.8008 9.84935 17.2076 10.5194 17.4851ZM8.71539 8.46539C9.75436 7.42642 11.1635 6.84273 12.6328 6.84273C14.1022 6.84273 15.5113 7.42642 16.5503 8.46539C17.5892 9.50436 18.1729 10.9135 18.1729 12.3828C18.1729 13.8522 17.5892 15.2613 16.5503 16.3003C15.5113 17.3392 14.1022 17.9229 12.6328 17.9229C11.1635 17.9229 9.75436 17.3392 8.71539 16.3003C7.67642 15.2613 7.09274 13.8522 7.09274 12.3828C7.09274 10.9135 7.67642 9.50436 8.71539 8.46539ZM21.2925 5.55287C21.2925 5.97342 21.1255 6.37674 20.8281 6.67411C20.5307 6.97149 20.1274 7.13855 19.7068 7.13855C19.2863 7.13855 18.883 6.97149 18.5856 6.67411C18.2882 6.37674 18.1212 5.97342 18.1212 5.55287C18.1212 5.13232 18.2882 4.72899 18.5856 4.43162C18.883 4.13425 19.2863 3.96718 19.7068 3.96718C20.1274 3.96718 20.5307 4.13425 20.8281 4.43162C21.1255 4.72899 21.2925 5.13232 21.2925 5.55287Z" stroke="#00084F" stroke-linejoin="round"/>
</svg>
