<svg width="40" height="41" viewBox="0 0 40 41" fill="none" xmlns="http://www.w3.org/2000/svg">
<path fill-rule="evenodd" clip-rule="evenodd" d="M36.6615 20.0946C36.6615 29.2994 29.1995 36.7613 19.9948 36.7613C10.79 36.7613 3.32812 29.2994 3.32812 20.0946C3.32812 10.8899 10.79 3.42798 19.9948 3.42798C29.1995 3.42798 36.6615 10.8899 36.6615 20.0946ZM20.592 15.7321C18.971 16.4063 15.7311 17.8019 10.8724 19.9187C10.0834 20.2325 9.67013 20.5394 9.63251 20.8395C9.56892 21.3467 10.2041 21.5465 11.069 21.8184C11.1867 21.8554 11.3086 21.8938 11.4336 21.9344C12.2845 22.211 13.4293 22.5346 14.0243 22.5475C14.5641 22.5591 15.1666 22.3366 15.8318 21.8799C20.3714 18.8155 22.7147 17.2666 22.8619 17.2332C22.9657 17.2097 23.1095 17.18 23.2069 17.2667C23.3044 17.3533 23.2948 17.5173 23.2845 17.5613C23.2216 17.8296 20.7283 20.1476 19.438 21.3471C19.0357 21.7211 18.7504 21.9864 18.6921 22.0469C18.5614 22.1826 18.4283 22.311 18.3003 22.4344C17.5097 23.1965 16.9169 23.768 18.3331 24.7013C19.0137 25.1498 19.5583 25.5207 20.1016 25.8907C20.695 26.2948 21.2868 26.6978 22.0526 27.1998C22.2477 27.3276 22.434 27.4605 22.6155 27.5898C23.306 28.0821 23.9264 28.5244 24.6928 28.4539C25.1382 28.4129 25.5982 27.9941 25.8318 26.7452C26.384 23.7935 27.4693 17.3981 27.7201 14.7627C27.7421 14.5318 27.7144 14.2363 27.6922 14.1066C27.67 13.9768 27.6236 13.792 27.455 13.6552C27.2553 13.4932 26.947 13.459 26.8092 13.4613C26.1823 13.4725 25.2205 13.8069 20.592 15.7321Z" stroke="#080A2F" stroke-linejoin="round"/>
</svg>
