<svg width="27" height="27" viewBox="0 0 27 27" fill="none" xmlns="http://www.w3.org/2000/svg">
<path fill-rule="evenodd" clip-rule="evenodd" d="M25.5788 13.4993C25.5788 20.1728 20.1689 25.5827 13.4954 25.5827C6.822 25.5827 1.41211 20.1728 1.41211 13.4993C1.41211 6.82591 6.822 1.41602 13.4954 1.41602C20.1689 1.41602 25.5788 6.82591 25.5788 13.4993ZM13.9284 10.3365C12.7532 10.8253 10.4042 11.8371 6.88171 13.3718C6.30971 13.5993 6.01006 13.8218 5.98279 14.0394C5.93669 14.4071 6.39719 14.5519 7.02428 14.7491C7.10958 14.7759 7.19796 14.8037 7.28856 14.8332C7.90552 15.0337 8.73543 15.2683 9.16687 15.2777C9.55822 15.2861 9.99502 15.1248 10.4773 14.7936C13.7685 12.572 15.4674 11.449 15.5741 11.4248C15.6493 11.4077 15.7536 11.3863 15.8243 11.4491C15.8949 11.5119 15.888 11.6308 15.8805 11.6627C15.8349 11.8572 14.0272 13.5377 13.0918 14.4074C12.8001 14.6785 12.5933 14.8708 12.551 14.9148C12.4563 15.0131 12.3597 15.1062 12.2669 15.1957C11.6938 15.7482 11.264 16.1625 12.2907 16.8392C12.7842 17.1643 13.179 17.4332 13.5729 17.7015C14.0031 17.9944 14.4322 18.2866 14.9873 18.6506C15.1288 18.7433 15.2639 18.8396 15.3954 18.9334C15.8961 19.2903 16.3458 19.6109 16.9015 19.5598C17.2244 19.5301 17.5579 19.2265 17.7273 18.321C18.1276 16.181 18.9144 11.5443 19.0963 9.63366C19.1122 9.46627 19.0922 9.25203 19.0761 9.15798C19.06 9.06394 19.0263 8.92994 18.9041 8.83075C18.7593 8.71328 18.5358 8.68851 18.4359 8.69018C17.9814 8.69827 17.2841 8.94073 13.9284 10.3365Z" stroke="#00084F" stroke-linejoin="round"/>
</svg>
