<svg width="40" height="41" viewBox="0 0 40 41" fill="none" xmlns="http://www.w3.org/2000/svg">
<path d="M36.6663 9.96914C35.4405 10.5123 34.1237 10.8793 32.7393 11.0452C34.1516 10.1996 35.235 8.85784 35.7459 7.26061C34.4246 8.04454 32.961 8.61414 31.4034 8.91949C30.1556 7.59239 28.3793 6.76147 26.4121 6.76147C22.6363 6.76147 19.5739 9.82381 19.5739 13.6025C19.5739 14.1369 19.6356 14.6566 19.7501 15.1587C14.0644 14.8724 9.02754 12.1492 5.65398 8.01225C5.06676 9.02519 4.72911 10.1996 4.72911 11.4504C4.72911 13.8228 5.93731 15.9176 7.77089 17.1435C6.64931 17.1068 5.59526 16.7999 4.67333 16.2876V16.3757C4.67333 19.689 7.02953 22.4534 10.1594 23.0817C9.58393 23.2373 8.98056 23.3195 8.35811 23.3195C7.9177 23.3195 7.48756 23.2784 7.07064 23.1991C7.94119 25.915 10.4662 27.8939 13.4596 27.9468C11.118 29.7818 8.16873 30.8755 4.96547 30.8755C4.41349 30.8755 3.86884 30.8432 3.33301 30.7801C6.36011 32.7223 9.95387 33.8527 13.8148 33.8527C26.3959 33.8527 33.2737 23.4325 33.2737 14.3953C33.2737 14.1017 33.2664 13.8051 33.2531 13.5115C34.5891 12.5456 35.7488 11.3432 36.6634 9.97355L36.6663 9.96914Z" stroke="#080A2F" stroke-linejoin="round"/>
</svg>
